<svg xmlns="http://www.w3.org/2000/svg"><symbol id="snail" viewBox="0 0 100 55.56"><defs><style>.cls-1{fill:#fff}</style></defs><path d="M92.7 3.09a5.23 5.23 0 0 0-5.2 5.2 5.38 5.38 0 0 0 2.5 4.5l-3.3 10.4a13.64 13.64 0 0 0-1.7-.4l-2.1-8a5.26 5.26 0 1 0-2.5.6h.1l2 7.5c-3.3.8-6 3.9-8.5 6.7-2.7 3-5.5 6.2-8.8 6.7-.8-9-3.8-16.1-9-21.2A29.85 29.85 0 0 0 36.5 7a23.64 23.64 0 0 0-23.6 23.6 17 17 0 0 0 4.9 11.9c-8.2 2.4-13.4 5.2-15.5 8.2a1.27 1.27 0 0 0 1 2h83.8a1.28 1.28 0 0 0 1.2-1.1 1.3 1.3 0 0 0-.9-1.4c-2.1-.6-5.4-2.1-6.1-3.5a.85.85 0 0 1 0-.7 22 22 0 0 1 2.8-3.7c3.4-4 8-9.6 7.4-14a5.61 5.61 0 0 0-2.6-4h-.1l3.5-10.8h.4a5.2 5.2 0 1 0 0-10.4zm-15.1 7.1a2.8 2.8 0 0 1 2.8-2.8 2.75 2.75 0 1 1 0 5.5 2.78 2.78 0 0 1-2.8-2.7zm-41.2-.6c.9 0 10.6.2 17.9 7.4 5.4 5.3 8.2 13.1 8.5 23.1H43.6a16.85 16.85 0 0 0 2.9-9.4 10.2 10.2 0 1 0-20.4 0 1.22 1.22 0 0 0 1.2 1.2 1.29 1.29 0 0 0 1.2-1.2 7.7 7.7 0 1 1 15.4 0 14.4 14.4 0 0 1-28.8 0 21.34 21.34 0 0 1 21.3-21.1zm52.7 19.1c.5 3.4-3.9 8.6-6.8 12.1A21.47 21.47 0 0 0 79.2 45a3.07 3.07 0 0 0 0 2.8 6.75 6.75 0 0 0 2.3 2.5H6.3c2.7-2 7.4-4 13.7-5.7a16.75 16.75 0 0 0 21.5-2H64a1.22 1.22 0 0 0 1.2-1.2 20.9 20.9 0 0 0-.1-2.5c4.3-.6 7.6-4.3 10.6-7.6 4.4-5 7.3-7.8 11.8-4.8a2.73 2.73 0 0 1 1.6 2.19zm3.6-17.6a2.8 2.8 0 0 1-2.8-2.8 2.8 2.8 0 1 1 5.6 0 2.8 2.8 0 0 1-2.8 2.8z" class="cls-1"/></symbol></svg>