<svg xmlns="http://www.w3.org/2000/svg"><symbol id="snail" viewBox="0 0 256 256.3"><style>.st0{fill:#fff}</style><path d="M236.8 65.1c-7.3.1-13.1 5.9-13.2 13.2 0 4.7 2.4 9 6.4 11.5l-8.5 26.4c-1.4-.4-2.8-.8-4.3-1l-5.3-20.4c6.6-3.4 9.1-11.5 5.7-18.1s-11.5-9.1-18.1-5.7-9.1 11.5-5.7 18.1c2.3 4.4 6.7 7.1 11.7 7.2h.3l5.1 19.1c-8.4 2-15.3 9.9-21.6 17.1-6.3 7.2-14 15.8-22.4 17.1-2-22.9-9.7-41-22.9-54C122.4 74.7 94.7 75 93.7 75c-33.2.1-60 26.9-60.1 60.1 0 11.4 4.5 22.2 12.5 30.3-20.9 6.1-34.1 13.2-39.5 20.8-1 1.4-.7 3.4.7 4.5.5.4 1.2.6 1.8.6h213.4c1.6-.1 2.9-1.2 3.1-2.8.2-1.6-.8-3.1-2.3-3.6-5.3-1.5-13.7-5.3-15.5-8.9-.3-.6-.3-1.2 0-1.8.8-1.8 3.8-5.6 7.1-9.4 8.7-10.2 20.4-24.4 18.8-35.6-.6-4.2-3-8-6.6-10.2h-.3l8.9-27.5h1c7.3 0 13.2-5.9 13.2-13.2S244.1 65 236.7 65l.1.1zm-38.5 18c0-3.9 3.2-7.1 7.1-7.1 3.9 0 7 3.1 7 7s-3.1 7-7 7c-3.8 0-7-3-7.1-6.9zM93.4 81.6c2.3 0 27 .5 45.6 18.8 13.7 13.5 20.9 33.4 21.6 58.8h-48.8c4.8-7.1 7.4-15.4 7.4-23.9.9-14.3-10-26.7-24.3-27.6-14.3-.9-26.7 10-27.6 24.3-.1 1.1-.1 2.1 0 3.2 0 1.7 1.4 3.1 3.1 3.1 1.7-.1 3-1.4 3.1-3.1 0-10.8 8.8-19.6 19.6-19.6s19.6 8.8 19.6 19.6c1.1 20.2-14.5 37.5-34.7 38.6s-37.5-14.5-38.6-34.7c-.1-1.3-.1-2.6 0-3.8.4-29.6 24.4-53.5 54-53.7zm134.2 48.6c1.3 8.7-9.9 21.9-17.3 30.8-3.8 4.6-6.9 8.1-7.9 10.7-1.1 2.2-1.1 4.9 0 7.1 1.4 2.6 3.4 4.8 5.9 6.4H16.8c6.9-5.1 18.8-10.2 34.9-14.5 17 11.9 40.1 9.7 54.7-5.1h57.3c1.7 0 3.1-1.4 3.1-3.1 0-2.1-.1-4.3-.3-6.4 10.9-1.5 19.3-10.9 27-19.3 11.2-12.7 18.6-19.9 30-12.2 2.3 1 3.9 3.1 4.1 5.6zm9.2-44.8c-3.9 0-7.1-3.2-7.1-7.1 0-3.9 3.2-7.2 7.1-7.2 3.9 0 7.2 3.2 7.2 7.2 0 3.9-3.2 7.1-7.1 7.1h-.1z" class="st0"/></symbol></svg>